<svg xmlns="http://www.w3.org/2000/svg" width="26" height="34" viewBox="0 0 26 34">
  <g id="Group_8" data-name="Group 8" transform="translate(-21.002 0)">
    <path id="Fill_1" data-name="Fill 1" d="M13.286,34h-.562c-.1-.075-.2-.147-.3-.217a3.629,3.629,0,0,1-.6-.493A69.25,69.25,0,0,1,3.779,22.728,29.276,29.276,0,0,1,.551,15.8,11.468,11.468,0,0,1,2.222,5.459,12.614,12.614,0,0,1,11.208.131,14.951,14.951,0,0,1,13.16,0a12.94,12.94,0,0,1,8.069,2.792,11.934,11.934,0,0,1,4.626,7.688,12.861,12.861,0,0,1-.967,6.99,39.812,39.812,0,0,1-4.766,8.469,74.985,74.985,0,0,1-5.939,7.351,3.742,3.742,0,0,1-.6.493c-.1.07-.2.142-.3.217Zm-.3-26.154A5.133,5.133,0,0,0,9.333,9.375,5.233,5.233,0,0,0,13,18.308H13a5.231,5.231,0,0,0,.009-10.462Z" transform="translate(21)" fill="#b66ba8"/>
  </g>
</svg>
