<svg xmlns="http://www.w3.org/2000/svg" width="16" height="21" viewBox="0 0 16 21">
  <path id="Fill_1" data-name="Fill 1" d="M8.176,21H7.83c-.059-.046-.122-.091-.183-.135a2.283,2.283,0,0,1-.369-.3,42.824,42.824,0,0,1-4.953-6.523A18.121,18.121,0,0,1,.339,9.759,7.1,7.1,0,0,1,1.367,3.371,7.761,7.761,0,0,1,6.9.081,9.172,9.172,0,0,1,8.1,0a7.945,7.945,0,0,1,4.966,1.724,7.371,7.371,0,0,1,2.847,4.748,7.97,7.97,0,0,1-.6,4.317,24.6,24.6,0,0,1-2.933,5.231,46.116,46.116,0,0,1-3.655,4.541,2.3,2.3,0,0,1-.371.305c-.06.043-.122.087-.181.133ZM7.993,4.846a3.153,3.153,0,0,0-2.245.939,3.191,3.191,0,1,0,2.259-.939Z" transform="translate(-0.001 0)" fill="#b66ba8"/>
</svg>
