<svg id="Group_3" data-name="Group 3" xmlns="http://www.w3.org/2000/svg" width="16" height="16" viewBox="0 0 16 16">
  <path id="Fill_1" data-name="Fill 1" d="M0,4.1a.869.869,0,0,1,.147-.484A12.645,12.645,0,0,1,1.8,1.376,8.859,8.859,0,0,1,2.992.243a.943.943,0,0,1,1.43.2A18.687,18.687,0,0,1,6.458,3.8c.021.045.035.094.053.14A1.035,1.035,0,0,1,6.2,5.321c-.273.253-.558.494-.843.733a.17.17,0,0,0-.06.225,7.341,7.341,0,0,0,4.458,4.448.149.149,0,0,0,.2-.057c.2-.235.395-.467.6-.7.1-.109.194-.214.3-.313a.962.962,0,0,1,1.028-.233,6.752,6.752,0,0,1,1.163.529,24.855,24.855,0,0,1,2.451,1.572,1.24,1.24,0,0,1,.492.729.672.672,0,0,1-.057.483,2.366,2.366,0,0,1-.343.51,13.713,13.713,0,0,1-3.086,2.573,1.493,1.493,0,0,1-1.169.111A11.325,11.325,0,0,1,7.3,14.211,18.315,18.315,0,0,1,1.288,7.85,10.489,10.489,0,0,1,.081,4.676c-.019-.1-.035-.2-.048-.3S.009,4.17,0,4.1" fill="#b66ba8"/>
</svg>
